# xmcd
#
# Track frame offsets:
#	182
#	11637
#	24075
#	38615
#	55150
#	65650
#	79675
#	93387
#	109085
#	124010
#
# Disc length: 1818
#
# Revision: 6
# Processed by: cddbd v1.5.1PL0 Copyright (c) Steve Scherf et al.
# Submitted via: CDex 1.40Release
# Normalized: r4:DSETVAR1,TSWAP
#
DISCID=7207180a
DTITLE=Various Artist - best of the blues volume 1
DYEAR=1900
DGENRE=Blues
TTITLE0=john lee hooker - boom boom
TTITLE1=howlin' wolf - killing floor
TTITLE2=brownie mcghee and sonny terry - trouble in mind
TTITLE3=john hurt - coffee blues
TTITLE4=jimmy reed - baby what you want me to do
TTITLE5=muddy waters - you gonna need my help
TTITLE6=leadbelly - where did you sleep last night
TTITLE7=memphis slim - mother earth
TTITLE8=lightnin' hopkins - mojo hand
TTITLE9=leadbelly - pretty flower in your back yard
EXTD=ID3G: 0
EXTT0=
EXTT1=
EXTT2=
EXTT3=
EXTT4=
EXTT5=
EXTT6=
EXTT7=
EXTT8=
EXTT9=
PLAYORDER=
